<?xml version="1.0" standalone="no"?><!DOCTYPE svg PUBLIC "-//W3C//DTD SVG 1.1//EN" "http://www.w3.org/Graphics/SVG/1.1/DTD/svg11.dtd"><svg t="1777186939326" class="icon" viewBox="0 0 1024 1024" version="1.1" xmlns="http://www.w3.org/2000/svg" p-id="14017" width="32" height="32" xmlns:xlink="http://www.w3.org/1999/xlink"><path d="M896.4 168.5c-11.7-10.6-26.9-16.5-42.7-16.4h-4.5c-0.9 0-10.9 0.9-26.4 0.9-41.9 0.2-83.7-4.4-124.5-13.6-61.9-14.6-133.8-82.8-154.7-96.4-10.4-6.5-22.3-9.9-34.5-10-12.2 0.2-24.1 3.7-34.5 10-2.7 1.8-77.3 79.1-150 96.4-41.2 9.2-83.4 13.8-125.6 13.6-16.4 0-26.3-0.9-27.3-0.9h-3.5c-15.8-0.3-31.1 5.6-42.7 16.4-12.7 11-19.9 26.9-20 43.7v150.9c0 556.4 377.3 628.1 392.8 631 7.2 1.2 14.6 1.2 21.8 0 16.3-2.7 395.5-74.6 395.5-631V212.2c-0.3-16.5-7.2-32.3-19.2-43.7zM756.4 384l-261 252.7c-1.6 2.8-3.8 5.3-6.4 7.3-7.3 7.1-17.1 11-27.3 10.9-10.4 0-20.5-3.9-28.2-10.9-2.3-2-4.2-4.5-5.4-7.3l-140-135.5c-14.3-14-14.6-36.9-0.6-51.2l0.6-0.6c14.9-14.6 38.7-14.6 53.6 0l120 115.5 240.9-232.7c14.9-14.6 38.7-14.6 53.6 0 14.3 12.9 15.4 35 2.5 49.3-0.7 0.8-1.5 1.7-2.3 2.5z" fill="#1afa29" p-id="14018"></path></svg>