<?xml version="1.0" standalone="no"?><!DOCTYPE svg PUBLIC "-//W3C//DTD SVG 1.1//EN" "http://www.w3.org/Graphics/SVG/1.1/DTD/svg11.dtd"><svg t="1777186895994" class="icon" viewBox="0 0 1024 1024" version="1.1" xmlns="http://www.w3.org/2000/svg" p-id="11723" width="32" height="32" xmlns:xlink="http://www.w3.org/1999/xlink"><path d="M512 0c282.774588 0 512 229.225412 512 512S794.774588 1024 512 1024 0 794.774588 0 512 229.225412 0 512 0z m0 210.823529c-166.339765 0-301.176471 134.836706-301.176471 301.176471s134.836706 301.176471 301.176471 301.176471 301.176471-134.836706 301.176471-301.176471-134.836706-301.176471-301.176471-301.176471z m0 30.117647c149.699765 0 271.058824 121.359059 271.058824 271.058824s-121.359059 271.058824-271.058824 271.058824-271.058824-121.359059-271.058824-271.058824 121.359059-271.058824 271.058824-271.058824z m168.869647 135.529412c-74.932706 58.232471-153.148235 111.088941-211.380706 187.542588l-84.901647-67.568941L346.352941 522.300235l147.516235 139.821177c50.447059-98.861176 108.980706-195.734588 197.812706-271.209412L680.869647 376.470588z" fill="#1afa29" p-id="11724"></path></svg>